<svg width="320" height="620" viewBox="0 0 320 620" xmlns="http://www.w3.org/2000/svg" font-family="-apple-system, BlinkMacSystemFont, 'Segoe UI', sans-serif">
  <!-- Phone shell -->
  <rect width="320" height="620" rx="36" fill="#1A1A1A"/>
  <rect x="6" y="6" width="308" height="608" rx="31" fill="#F8F9FA"/>

  <!-- Status bar -->
  <rect x="6" y="6" width="308" height="34" rx="31" fill="white"/>
  <rect x="6" y="28" width="308" height="12" fill="white"/>
  <text x="20" y="28" font-size="11" font-weight="700" fill="#202124">9:41</text>
  <text x="270" y="28" font-size="11" font-weight="700" fill="#202124">100%</text>

  <!-- App bar -->
  <rect x="6" y="38" width="308" height="44" fill="white"/>
  <text x="20" y="65" font-size="14" fill="#202124">←</text>
  <text x="38" y="66" font-size="16" font-weight="700" fill="#202124">Traders</text>
  <line x1="6" y1="82" x2="314" y2="82" stroke="#E8EAED" stroke-width="1"/>

  <!-- Search bar -->
  <rect x="14" y="90" width="292" height="38" rx="12" fill="white" stroke="#E8EAED" stroke-width="1"/>
  <text x="28" y="113" font-size="14" fill="#aaa">🔍</text>
  <text x="50" y="113" font-size="13" fill="#aaa">Search traders...</text>

  <!-- Tabs -->
  <rect x="6" y="136" width="308" height="32" fill="white"/>
  <line x1="6" y1="168" x2="314" y2="168" stroke="#E8EAED" stroke-width="1"/>
  <text x="64" y="157" font-size="12" font-weight="600" fill="#1A73E8" text-anchor="middle">Leaderboard</text>
  <line x1="6" y1="168" x2="122" y2="168" stroke="#1A73E8" stroke-width="2"/>
  <text x="174" y="157" font-size="12" fill="#888" text-anchor="middle">Search</text>
  <text x="266" y="157" font-size="12" fill="#888" text-anchor="middle">Following</text>

  <!-- Section label -->
  <text x="18" y="188" font-size="11" font-weight="600" fill="#888">TOP TRADERS THIS MONTH</text>

  <!-- Trader 1 - Yuki -->
  <rect x="14" y="196" width="292" height="72" rx="12" fill="white" stroke="#E8EAED" stroke-width="1"/>
  <text x="26" y="222" font-size="16" font-weight="700" fill="#D4AF37">🥇</text>
  <circle cx="64" cy="218" r="20" fill="#FFEBEE"/>
  <text x="64" y="223" font-size="13" font-weight="700" fill="#C62828" text-anchor="middle">YT</text>
  <text x="92" y="212" font-size="13" font-weight="700" fill="#202124">Yuki Tanaka</text>
  <text x="92" y="224" font-size="10" fill="#888">🇯🇵 @yuki_yen  •  Verified ✓</text>
  <text x="92" y="238" font-size="10" fill="#888">USD/JPY · EUR/JPY · GBP/JPY</text>
  <rect x="228" y="206" width="66" height="24" rx="8" fill="#E6F4EA"/>
  <text x="261" y="222" font-size="12" font-weight="700" fill="#0F9D58" text-anchor="middle">+391.4%</text>
  <text x="261" y="256" font-size="10" fill="#888" text-anchor="middle">9,804 trades</text>

  <!-- Trader 2 - Sarah -->
  <rect x="14" y="274" width="292" height="72" rx="12" fill="white" stroke="#E8EAED" stroke-width="1"/>
  <text x="26" y="300" font-size="16" font-weight="700" fill="#A8A9AD">🥈</text>
  <circle cx="64" cy="296" r="20" fill="#E8F5E9"/>
  <text x="64" y="301" font-size="13" font-weight="700" fill="#0F9D58" text-anchor="middle">SC</text>
  <text x="92" y="290" font-size="13" font-weight="700" fill="#202124">Sarah Chen</text>
  <text x="92" y="302" font-size="10" fill="#888">🇸🇬 @sarah_trades  •  Verified ✓</text>
  <text x="92" y="316" font-size="10" fill="#888">AUD/USD · USD/SGD · USD/CNY</text>
  <rect x="228" y="284" width="66" height="24" rx="8" fill="#E6F4EA"/>
  <text x="261" y="300" font-size="12" font-weight="700" fill="#0F9D58" text-anchor="middle">+218.5%</text>
  <text x="261" y="334" font-size="10" fill="#888" text-anchor="middle">5,102 trades</text>

  <!-- Trader 3 - Arjun -->
  <rect x="14" y="352" width="292" height="72" rx="12" fill="white" stroke="#E8EAED" stroke-width="1"/>
  <text x="26" y="378" font-size="16" font-weight="700" fill="#CD7F32">🥉</text>
  <circle cx="64" cy="374" r="20" fill="#E8F0FE"/>
  <text x="64" y="379" font-size="13" font-weight="700" fill="#1A73E8" text-anchor="middle">AS</text>
  <text x="92" y="368" font-size="13" font-weight="700" fill="#202124">Arjun Sharma</text>
  <text x="92" y="380" font-size="10" fill="#888">🇮🇳 @arjun_fx  •  Verified ✓</text>
  <text x="92" y="394" font-size="10" fill="#888">EUR/USD · GBP/USD · USD/JPY</text>
  <rect x="228" y="362" width="66" height="24" rx="8" fill="#E6F4EA"/>
  <text x="261" y="378" font-size="12" font-weight="700" fill="#0F9D58" text-anchor="middle">+142.8%</text>
  <text x="261" y="412" font-size="10" fill="#888" text-anchor="middle">3,241 trades</text>

  <!-- Trader 4 - Reza -->
  <rect x="14" y="430" width="292" height="72" rx="12" fill="white" stroke="#E8EAED" stroke-width="1"/>
  <text x="26" y="456" font-size="12" font-weight="700" fill="#888">4</text>
  <circle cx="64" cy="452" r="20" fill="#FFF3E0"/>
  <text x="64" y="457" font-size="13" font-weight="700" fill="#E65100" text-anchor="middle">RF</text>
  <text x="92" y="446" font-size="13" font-weight="700" fill="#202124">Reza Al-Farsi</text>
  <text x="92" y="458" font-size="10" fill="#888">🇦🇪 @reza_dollar</text>
  <text x="92" y="472" font-size="10" fill="#888">USD/AED · USD/SAR · USD/TRY</text>
  <rect x="228" y="440" width="66" height="24" rx="8" fill="#E6F4EA"/>
  <text x="261" y="456" font-size="12" font-weight="700" fill="#0F9D58" text-anchor="middle">+89.7%</text>
  <text x="261" y="490" font-size="10" fill="#888" text-anchor="middle">1,560 trades</text>

  <!-- Trader 5 - Mike -->
  <rect x="14" y="508" width="292" height="72" rx="12" fill="white" stroke="#E8EAED" stroke-width="1"/>
  <text x="26" y="534" font-size="12" font-weight="700" fill="#888">5</text>
  <circle cx="64" cy="530" r="20" fill="#F3E5F5"/>
  <text x="64" y="535" font-size="13" font-weight="700" fill="#7B1FA2" text-anchor="middle">MP</text>
  <text x="92" y="524" font-size="13" font-weight="700" fill="#202124">Mike Patel</text>
  <text x="92" y="536" font-size="10" fill="#888">🇬🇧 @fx_mike_london</text>
  <text x="92" y="550" font-size="10" fill="#888">GBP/USD · GBP/EUR · GBP/JPY</text>
  <rect x="228" y="518" width="66" height="24" rx="8" fill="#E6F4EA"/>
  <text x="261" y="534" font-size="12" font-weight="700" fill="#0F9D58" text-anchor="middle">+44.2%</text>
  <text x="261" y="568" font-size="10" fill="#888" text-anchor="middle">891 trades</text>

  <!-- Bottom bar -->
  <rect x="120" y="608" width="80" height="4" rx="2" fill="#202124"/>
</svg>
