<svg xmlns="http://www.w3.org/2000/svg" viewBox="0 0 320 620" width="320" height="620" font-family="system-ui,sans-serif">
  <defs>
    <clipPath id="phone2"><rect x="0" y="0" width="320" height="620" rx="32"/></clipPath>
  </defs>
  <g clip-path="url(#phone2)">
    <rect width="320" height="620" fill="#0f172a"/>
    <rect x="0" y="0" width="320" height="56" fill="#1e293b"/>
    <text x="44" y="34" fill="#f1f5f9" font-size="16" font-weight="600">EUR / USD</text>
    <text x="44" y="48" fill="#64748b" font-size="11">Euro · Base USD</text>
    <rect x="16" y="18" width="20" height="20" rx="4" fill="#334155"/>
    <text x="26" y="32" fill="#94a3b8" font-size="13" text-anchor="middle">&#8592;</text>
    <rect x="262" y="16" width="44" height="22" rx="11" fill="#14532d"/>
    <text x="284" y="31" fill="#4ade80" font-size="11" font-weight="600" text-anchor="middle">+0.32%</text>

    <text x="16" y="82" fill="#f1f5f9" font-size="28" font-weight="700">1.0842</text>
    <text x="168" y="82" fill="#64748b" font-size="13">USD per EUR</text>

    <rect x="12" y="96" width="296" height="180" rx="10" fill="#1e293b"/>
    <line x1="28" y1="256" x2="292" y2="256" stroke="#334155" stroke-width="0.5"/>
    <line x1="28" y1="232" x2="292" y2="232" stroke="#334155" stroke-width="0.5"/>
    <line x1="28" y1="208" x2="292" y2="208" stroke="#334155" stroke-width="0.5"/>
    <line x1="28" y1="184" x2="292" y2="184" stroke="#334155" stroke-width="0.5"/>
    <line x1="28" y1="160" x2="292" y2="160" stroke="#334155" stroke-width="0.5"/>
    <text x="24" y="260" fill="#475569" font-size="9" text-anchor="end">1.075</text>
    <text x="24" y="236" fill="#475569" font-size="9" text-anchor="end">1.080</text>
    <text x="24" y="212" fill="#475569" font-size="9" text-anchor="end">1.085</text>
    <text x="24" y="188" fill="#475569" font-size="9" text-anchor="end">1.090</text>
    <text x="24" y="164" fill="#475569" font-size="9" text-anchor="end">1.095</text>
    <polyline points="28,240 60,236 90,244 118,230 148,222 178,228 208,215 238,210 268,206 292,202" fill="none" stroke="#3b82f6" stroke-width="2"/>
    <polygon points="28,240 60,236 90,244 118,230 148,222 178,228 208,215 238,210 268,206 292,202 292,258 28,258" fill="#3b82f6" fill-opacity="0.15"/>
    <text x="50" y="270" fill="#475569" font-size="9" text-anchor="middle">Mar 25</text>
    <text x="120" y="270" fill="#475569" font-size="9" text-anchor="middle">Apr 1</text>
    <text x="196" y="270" fill="#475569" font-size="9" text-anchor="middle">Apr 8</text>
    <text x="268" y="270" fill="#475569" font-size="9" text-anchor="middle">Apr 15</text>

    <rect x="40" y="104" width="26" height="16" rx="8" fill="#3b82f6"/>
    <text x="53" y="116" fill="#fff" font-size="10" text-anchor="middle">7D</text>
    <text x="84" y="116" fill="#64748b" font-size="10" text-anchor="middle">14D</text>
    <text x="112" y="116" fill="#64748b" font-size="10" text-anchor="middle">30D</text>

    <rect x="12" y="288" width="140" height="60" rx="10" fill="#1e293b"/>
    <text x="24" y="304" fill="#64748b" font-size="10">7D Low</text>
    <text x="24" y="322" fill="#f87171" font-size="16" font-weight="700">1.0788</text>
    <text x="24" y="338" fill="#475569" font-size="10">Apr 10, 2024</text>

    <rect x="168" y="288" width="140" height="60" rx="10" fill="#1e293b"/>
    <text x="180" y="304" fill="#64748b" font-size="10">7D High</text>
    <text x="180" y="322" fill="#4ade80" font-size="16" font-weight="700">1.0921</text>
    <text x="180" y="338" fill="#475569" font-size="10">Apr 8, 2024</text>

    <text x="16" y="375" fill="#94a3b8" font-size="12" font-weight="500">Quick convert</text>
    <rect x="12" y="382" width="296" height="44" rx="10" fill="#1e293b"/>
    <text x="24" y="400" fill="#94a3b8" font-size="10">Amount (USD)</text>
    <text x="24" y="416" fill="#f1f5f9" font-size="15" font-weight="600">500</text>
    <text x="284" y="400" fill="#94a3b8" font-size="10" text-anchor="end">EUR</text>
    <text x="284" y="416" fill="#4ade80" font-size="15" font-weight="700" text-anchor="end">542.10</text>

    <text x="16" y="448" fill="#94a3b8" font-size="12" font-weight="500">Conversion table</text>
    <rect x="12" y="455" width="296" height="120" rx="10" fill="#1e293b"/>
    <text x="24" y="472" fill="#64748b" font-size="11">USD</text>
    <text x="284" y="472" fill="#f1f5f9" font-size="11" text-anchor="end">EUR</text>
    <line x1="12" y1="478" x2="308" y2="478" stroke="#334155" stroke-width="0.5"/>
    <text x="24" y="494" fill="#94a3b8" font-size="11">100</text>
    <text x="284" y="494" fill="#f1f5f9" font-size="11" text-anchor="end">108.42</text>
    <line x1="12" y1="500" x2="308" y2="500" stroke="#334155" stroke-width="0.5"/>
    <text x="24" y="516" fill="#94a3b8" font-size="11">500</text>
    <text x="284" y="516" fill="#f1f5f9" font-size="11" text-anchor="end">542.10</text>
    <line x1="12" y1="522" x2="308" y2="522" stroke="#334155" stroke-width="0.5"/>
    <text x="24" y="538" fill="#94a3b8" font-size="11">1,000</text>
    <text x="284" y="538" fill="#f1f5f9" font-size="11" text-anchor="end">1,084.20</text>
    <line x1="12" y1="544" x2="308" y2="544" stroke="#334155" stroke-width="0.5"/>
    <text x="24" y="560" fill="#94a3b8" font-size="11">5,000</text>
    <text x="284" y="560" fill="#f1f5f9" font-size="11" text-anchor="end">5,421.00</text>

    <rect x="0" y="572" width="320" height="48" fill="#1e293b"/>
    <text x="53" y="601" fill="#64748b" font-size="10" text-anchor="middle">Rates</text>
    <text x="160" y="601" fill="#3b82f6" font-size="10" text-anchor="middle">Chart</text>
    <text x="267" y="601" fill="#64748b" font-size="10" text-anchor="middle">Traders</text>
    <rect x="139" y="572" width="42" height="2" rx="1" fill="#3b82f6"/>
  </g>
  <rect x="0" y="0" width="320" height="620" rx="32" fill="none" stroke="#334155" stroke-width="2"/>
</svg>
