<svg xmlns="http://www.w3.org/2000/svg" viewBox="0 0 320 620" width="320" height="620" font-family="system-ui,sans-serif">
  <defs>
    <clipPath id="phone4"><rect x="0" y="0" width="320" height="620" rx="32"/></clipPath>
  </defs>
  <g clip-path="url(#phone4)">
    <rect width="320" height="620" fill="#0f172a"/>
    <rect x="0" y="0" width="320" height="56" fill="#1e293b"/>
    <rect x="16" y="18" width="20" height="20" rx="4" fill="#334155"/>
    <text x="26" y="32" fill="#94a3b8" font-size="13" text-anchor="middle">&#8592;</text>
    <text x="110" y="34" fill="#f1f5f9" font-size="16" font-weight="600">Profile</text>
    <rect x="260" y="16" width="46" height="24" rx="12" fill="#1d4ed8"/>
    <text x="283" y="32" fill="#93c5fd" font-size="11" font-weight="600" text-anchor="middle">Follow</text>

    <rect x="0" y="56" width="320" height="104" fill="#1e293b"/>
    <circle cx="56" cy="102" r="34" fill="#7c3aed"/>
    <text x="56" y="108" fill="#ddd6fe" font-size="22" font-weight="700" text-anchor="middle">AK</text>
    <text x="104" y="84" fill="#f1f5f9" font-size="16" font-weight="700">ArjunKhanna</text>
    <text x="104" y="100" fill="#94a3b8" font-size="12">@arjun_fx · India</text>
    <text x="104" y="117" fill="#64748b" font-size="11">Forex trader since 2021 · EUR/INR specialist</text>
    <rect x="104" y="124" width="48" height="18" rx="9" fill="#14532d"/>
    <text x="128" y="136" fill="#4ade80" font-size="10" font-weight="600" text-anchor="middle">Top trader</text>
    <rect x="158" y="124" width="52" height="18" rx="9" fill="#1e3a5f"/>
    <text x="184" y="136" fill="#93c5fd" font-size="10" text-anchor="middle">EUR/INR</text>

    <rect x="12" y="172" width="296" height="64" rx="10" fill="#1e293b"/>
    <text x="53" y="192" fill="#64748b" font-size="10" text-anchor="middle">Total profit</text>
    <text x="53" y="210" fill="#4ade80" font-size="16" font-weight="700" text-anchor="middle">+42.8%</text>
    <line x1="94" y1="176" x2="94" y2="230" stroke="#334155" stroke-width="0.5"/>
    <text x="134" y="192" fill="#64748b" font-size="10" text-anchor="middle">Win rate</text>
    <text x="134" y="210" fill="#f1f5f9" font-size="16" font-weight="700" text-anchor="middle">82%</text>
    <line x1="176" y1="176" x2="176" y2="230" stroke="#334155" stroke-width="0.5"/>
    <text x="216" y="192" fill="#64748b" font-size="10" text-anchor="middle">Trades</text>
    <text x="216" y="210" fill="#f1f5f9" font-size="16" font-weight="700" text-anchor="middle">284</text>
    <line x1="256" y1="176" x2="256" y2="230" stroke="#334155" stroke-width="0.5"/>
    <text x="284" y="192" fill="#64748b" font-size="10" text-anchor="middle">Followers</text>
    <text x="284" y="210" fill="#f1f5f9" font-size="16" font-weight="700" text-anchor="middle">1.2k</text>

    <text x="16" y="256" fill="#94a3b8" font-size="12" font-weight="500">Watchlist</text>
    <rect x="12" y="263" width="296" height="60" rx="10" fill="#1e293b"/>
    <rect x="24" y="275" width="40" height="18" rx="9" fill="#1e3a5f"/>
    <text x="44" y="288" fill="#93c5fd" font-size="11" text-anchor="middle">EUR/INR</text>
    <rect x="72" y="275" width="44" height="18" rx="9" fill="#1e3a5f"/>
    <text x="94" y="288" fill="#93c5fd" font-size="11" text-anchor="middle">USD/JPY</text>
    <rect x="124" y="275" width="44" height="18" rx="9" fill="#1e3a5f"/>
    <text x="146" y="288" fill="#93c5fd" font-size="11" text-anchor="middle">GBP/USD</text>
    <rect x="176" y="275" width="40" height="18" rx="9" fill="#1e3a5f"/>
    <text x="196" y="288" fill="#93c5fd" font-size="11" text-anchor="middle">AUD/NZ</text>
    <text x="24" y="311" fill="#475569" font-size="11">4 pairs tracked</text>

    <text x="16" y="344" fill="#94a3b8" font-size="12" font-weight="500">Recent activity</text>

    <rect x="12" y="351" width="296" height="52" rx="10" fill="#1e293b"/>
    <rect x="24" y="363" width="28" height="28" rx="14" fill="#14532d"/>
    <text x="38" y="381" fill="#4ade80" font-size="11" font-weight="700" text-anchor="middle">BUY</text>
    <text x="64" y="368" fill="#f1f5f9" font-size="13" font-weight="600">EUR/INR</text>
    <text x="64" y="384" fill="#64748b" font-size="11">Apr 15 · 500 units</text>
    <text x="284" y="368" fill="#4ade80" font-size="13" font-weight="700" text-anchor="end">+2.4%</text>
    <text x="284" y="384" fill="#475569" font-size="11" text-anchor="end">Closed</text>

    <rect x="12" y="411" width="296" height="52" rx="10" fill="#1e293b"/>
    <rect x="24" y="423" width="28" height="28" rx="14" fill="#7f1d1d"/>
    <text x="38" y="441" fill="#f87171" font-size="10" font-weight="700" text-anchor="middle">SELL</text>
    <text x="64" y="428" fill="#f1f5f9" font-size="13" font-weight="600">USD/JPY</text>
    <text x="64" y="444" fill="#64748b" font-size="11">Apr 12 · 1,000 units</text>
    <text x="284" y="428" fill="#4ade80" font-size="13" font-weight="700" text-anchor="end">+1.1%</text>
    <text x="284" y="444" fill="#475569" font-size="11" text-anchor="end">Closed</text>

    <rect x="12" y="471" width="296" height="52" rx="10" fill="#1e293b"/>
    <rect x="24" y="483" width="28" height="28" rx="14" fill="#14532d"/>
    <text x="38" y="501" fill="#4ade80" font-size="11" font-weight="700" text-anchor="middle">BUY</text>
    <text x="64" y="488" fill="#f1f5f9" font-size="13" font-weight="600">EUR/INR</text>
    <text x="64" y="504" fill="#64748b" font-size="11">Apr 9 · 800 units</text>
    <text x="284" y="488" fill="#f87171" font-size="13" font-weight="700" text-anchor="end">-0.6%</text>
    <text x="284" y="504" fill="#475569" font-size="11" text-anchor="end">Closed</text>

    <rect x="12" y="532" width="296" height="30" rx="8" fill="#334155"/>
    <text x="160" y="551" fill="#64748b" font-size="11" text-anchor="middle">View all 284 trades</text>

    <rect x="0" y="572" width="320" height="48" fill="#1e293b"/>
    <text x="53" y="601" fill="#64748b" font-size="10" text-anchor="middle">Rates</text>
    <text x="160" y="601" fill="#64748b" font-size="10" text-anchor="middle">Chart</text>
    <text x="267" y="601" fill="#3b82f6" font-size="10" text-anchor="middle">Traders</text>
    <rect x="246" y="572" width="42" height="2" rx="1" fill="#3b82f6"/>
  </g>
  <rect x="0" y="0" width="320" height="620" rx="32" fill="none" stroke="#334155" stroke-width="2"/>
</svg>
