<svg xmlns="http://www.w3.org/2000/svg" viewBox="0 0 320 620" width="320" height="620" font-family="system-ui,sans-serif">
  <defs>
    <clipPath id="phone3"><rect x="0" y="0" width="320" height="620" rx="32"/></clipPath>
  </defs>
  <g clip-path="url(#phone3)">
    <rect width="320" height="620" fill="#0f172a"/>
    <rect x="0" y="0" width="320" height="56" fill="#1e293b"/>
    <text x="16" y="34" fill="#f1f5f9" font-size="17" font-weight="600">Traders</text>
    <rect x="254" y="16" width="52" height="24" rx="12" fill="#334155"/>
    <text x="280" y="32" fill="#94a3b8" font-size="11" text-anchor="middle">Search</text>

    <rect x="0" y="56" width="320" height="36" fill="#1e293b"/>
    <rect x="16" y="66" width="88" height="18" rx="9" fill="#3b82f6"/>
    <text x="60" y="79" fill="#fff" font-size="11" font-weight="500" text-anchor="middle">Leaderboard</text>
    <text x="168" y="79" fill="#64748b" font-size="11" text-anchor="middle">Search</text>
    <text x="262" y="79" fill="#64748b" font-size="11" text-anchor="middle">Following</text>

    <rect x="12" y="104" width="296" height="68" rx="10" fill="#1e293b"/>
    <rect x="20" y="112" width="20" height="20" rx="4" fill="#b45309"/>
    <text x="30" y="126" fill="#fcd34d" font-size="12" font-weight="700" text-anchor="middle">#1</text>
    <circle cx="72" cy="122" r="18" fill="#7c3aed"/>
    <text x="72" y="127" fill="#ddd6fe" font-size="12" font-weight="700" text-anchor="middle">AK</text>
    <text x="98" y="116" fill="#f1f5f9" font-size="13" font-weight="600">ArjunKhanna</text>
    <text x="98" y="131" fill="#64748b" font-size="11">India · EUR/INR</text>
    <text x="284" y="116" fill="#4ade80" font-size="14" font-weight="700" text-anchor="end">+42.8%</text>
    <text x="284" y="131" fill="#475569" font-size="11" text-anchor="end">284 trades</text>
    <rect x="52" y="148" width="240" height="16" rx="4" fill="#334155"/>
    <rect x="52" y="148" width="200" height="16" rx="4" fill="#14532d"/>
    <text x="296" y="160" fill="#4ade80" font-size="10" text-anchor="end">82% win</text>

    <rect x="12" y="180" width="296" height="68" rx="10" fill="#1e293b"/>
    <rect x="20" y="188" width="20" height="20" rx="4" fill="#475569"/>
    <text x="30" y="202" fill="#cbd5e1" font-size="12" font-weight="700" text-anchor="middle">#2</text>
    <circle cx="72" cy="198" r="18" fill="#065f46"/>
    <text x="72" y="203" fill="#6ee7b7" font-size="12" font-weight="700" text-anchor="middle">MS</text>
    <text x="98" y="192" fill="#f1f5f9" font-size="13" font-weight="600">MeiSuzuki</text>
    <text x="98" y="207" fill="#64748b" font-size="11">Japan · JPY/USD</text>
    <text x="284" y="192" fill="#4ade80" font-size="14" font-weight="700" text-anchor="end">+38.1%</text>
    <text x="284" y="207" fill="#475569" font-size="11" text-anchor="end">311 trades</text>
    <rect x="52" y="224" width="240" height="16" rx="4" fill="#334155"/>
    <rect x="52" y="224" width="185" height="16" rx="4" fill="#14532d"/>
    <text x="296" y="236" fill="#4ade80" font-size="10" text-anchor="end">78% win</text>

    <rect x="12" y="256" width="296" height="68" rx="10" fill="#1e293b"/>
    <rect x="20" y="264" width="20" height="20" rx="4" fill="#7c2d12"/>
    <text x="30" y="278" fill="#fb923c" font-size="12" font-weight="700" text-anchor="middle">#3</text>
    <circle cx="72" cy="274" r="18" fill="#1d4ed8"/>
    <text x="72" y="279" fill="#bfdbfe" font-size="12" font-weight="700" text-anchor="middle">CL</text>
    <text x="98" y="268" fill="#f1f5f9" font-size="13" font-weight="600">CarlosLopez</text>
    <text x="98" y="283" fill="#64748b" font-size="11">Spain · EUR/GBP</text>
    <text x="284" y="268" fill="#4ade80" font-size="14" font-weight="700" text-anchor="end">+31.4%</text>
    <text x="284" y="283" fill="#475569" font-size="11" text-anchor="end">198 trades</text>
    <rect x="52" y="300" width="240" height="16" rx="4" fill="#334155"/>
    <rect x="52" y="300" width="170" height="16" rx="4" fill="#14532d"/>
    <text x="296" y="312" fill="#4ade80" font-size="10" text-anchor="end">74% win</text>

    <rect x="12" y="332" width="296" height="60" rx="10" fill="#1e293b"/>
    <text x="30" y="350" fill="#94a3b8" font-size="12" font-weight="600">#4</text>
    <circle cx="72" cy="355" r="16" fill="#334155"/>
    <text x="72" y="360" fill="#94a3b8" font-size="11" font-weight="700" text-anchor="middle">PW</text>
    <text x="98" y="350" fill="#f1f5f9" font-size="13" font-weight="600">PriyaWilson</text>
    <text x="98" y="365" fill="#64748b" font-size="11">UK · GBP/USD</text>
    <text x="284" y="350" fill="#4ade80" font-size="13" font-weight="700" text-anchor="end">+28.7%</text>
    <text x="284" y="365" fill="#475569" font-size="11" text-anchor="end">156 trades</text>
    <rect x="12" y="400" width="296" height="60" rx="10" fill="#1e293b"/>
    <text x="30" y="418" fill="#94a3b8" font-size="12" font-weight="600">#5</text>
    <circle cx="72" cy="423" r="16" fill="#334155"/>
    <text x="72" y="428" fill="#94a3b8" font-size="11" font-weight="700" text-anchor="middle">TM</text>
    <text x="98" y="418" fill="#f1f5f9" font-size="13" font-weight="600">TomMueller</text>
    <text x="98" y="433" fill="#64748b" font-size="11">Germany · EUR/CHF</text>
    <text x="284" y="418" fill="#4ade80" font-size="13" font-weight="700" text-anchor="end">+24.3%</text>
    <text x="284" y="433" fill="#475569" font-size="11" text-anchor="end">203 trades</text>
    <rect x="12" y="468" width="296" height="60" rx="10" fill="#1e293b"/>
    <text x="30" y="486" fill="#94a3b8" font-size="12" font-weight="600">#6</text>
    <circle cx="72" cy="491" r="16" fill="#334155"/>
    <text x="72" y="496" fill="#94a3b8" font-size="11" font-weight="700" text-anchor="middle">LB</text>
    <text x="98" y="486" fill="#f1f5f9" font-size="13" font-weight="600">LeilaBarakat</text>
    <text x="98" y="501" fill="#64748b" font-size="11">UAE · AED/USD</text>
    <text x="284" y="486" fill="#4ade80" font-size="13" font-weight="700" text-anchor="end">+19.6%</text>
    <text x="284" y="501" fill="#475569" font-size="11" text-anchor="end">177 trades</text>

    <rect x="12" y="536" width="296" height="26" rx="8" fill="#334155"/>
    <text x="160" y="553" fill="#64748b" font-size="11" text-anchor="middle">Pull to refresh · Auto-updates every 60s</text>

    <rect x="0" y="572" width="320" height="48" fill="#1e293b"/>
    <text x="53" y="601" fill="#64748b" font-size="10" text-anchor="middle">Rates</text>
    <text x="160" y="601" fill="#64748b" font-size="10" text-anchor="middle">Chart</text>
    <text x="267" y="601" fill="#3b82f6" font-size="10" text-anchor="middle">Traders</text>
    <rect x="246" y="572" width="42" height="2" rx="1" fill="#3b82f6"/>
  </g>
  <rect x="0" y="0" width="320" height="620" rx="32" fill="none" stroke="#334155" stroke-width="2"/>
</svg>
